<svg width="38" height="41" viewBox="0 0 38 41" fill="none" xmlns="http://www.w3.org/2000/svg">
<path opacity="0.5" d="M37.9544 0.270225L28.1676 36.8334C28.1179 36.9993 27.9188 37.0491 27.8027 36.9329L21.2505 30.3771L26.1605 12.0541C26.2103 11.8881 26.061 11.7387 25.8951 11.7885L7.58226 16.7012L1.06328 10.1786C0.947168 10.0624 0.996931 9.86327 1.16281 9.81348L37.689 0.00467392C37.8549 -0.02852 38.0042 0.120853 37.9544 0.270225Z" fill="#00B37E"/>
<path opacity="0.5" d="M23.2861 31.3768L20.7648 40.8371C20.715 41.0031 20.516 41.0529 20.3998 40.9367L0.0632817 20.6054C-0.0528324 20.4892 -0.00306943 20.2901 0.162808 20.2403L9.61781 17.7009L23.2861 31.3768Z" fill="#00B37E"/>
<path d="M28.1957 13.0538L23.2857 31.3768L9.61743 17.7009L27.9303 12.7882C28.0962 12.7384 28.2454 12.8878 28.1957 13.0538Z" fill="#00B37E"/>
</svg>
